<svg width="20" height="20" viewBox="0 0 20 20" fill="none" xmlns="http://www.w3.org/2000/svg">
<path fill-rule="evenodd" clip-rule="evenodd" d="M2.29199 9.99996C2.29199 5.74276 5.74313 2.29163 10.0003 2.29163C14.2575 2.29163 17.7087 5.74276 17.7087 9.99996C17.7087 14.2572 14.2575 17.7083 10.0003 17.7083C5.74313 17.7083 2.29199 14.2572 2.29199 9.99996ZM10.0003 1.04163C5.05277 1.04163 1.04199 5.05241 1.04199 9.99996C1.04199 14.9475 5.05277 18.9583 10.0003 18.9583C14.9479 18.9583 18.9587 14.9475 18.9587 9.99996C18.9587 5.05241 14.9479 1.04163 10.0003 1.04163ZM10.0003 4.37496C9.65515 4.37496 9.37533 4.65478 9.37533 4.99996V8.45444C8.76453 8.70169 8.33366 9.30051 8.33366 9.99996C8.33366 10.9204 9.07985 11.6666 10.0003 11.6666C10.9208 11.6666 11.667 10.9204 11.667 9.99996C11.667 9.30051 11.2361 8.70169 10.6253 8.45444V4.99996C10.6253 4.65478 10.3455 4.37496 10.0003 4.37496Z" fill="#7B94E6"/>
</svg>
